<mxfile host="app.diagrams.net" modified="2024-07-17T09:37:16.701Z" agent="Mozilla/5.0 (Windows NT 10.0; Win64; x64) AppleWebKit/537.36 (KHTML, like Gecko) Chrome/126.0.0.0 Safari/537.36" version="24.7.0" etag="HXSpREoBPW_jiJHOBh9E" type="github">
  <diagram name="Trang-1" id="K3c9NvnVTNhEQ0xUR2PM">
    <mxGraphModel>
      <root>
        <mxCell id="0" />
        <mxCell id="1" parent="0" />
      </root>
    </mxGraphModel>
  </diagram>
</mxfile>
